<svg width="20" height="21" viewBox="0 0 20 21" fill="none" xmlns="http://www.w3.org/2000/svg">
<path d="M11.9998 16.9992C12.265 16.9992 12.5194 16.8938 12.7069 16.7063C12.8944 16.5187 12.9998 16.2644 12.9998 15.9992V13.9992C12.9998 13.734 12.8944 13.4796 12.7069 13.2921C12.5194 13.1045 12.265 12.9992 11.9998 12.9992C11.7346 12.9992 11.4802 13.1045 11.2927 13.2921C11.1052 13.4796 10.9998 13.734 10.9998 13.9992V15.9992C10.9998 16.2644 11.1052 16.5187 11.2927 16.7063C11.4802 16.8938 11.7346 16.9992 11.9998 16.9992ZM7.99979 16.9992C8.26501 16.9992 8.51936 16.8938 8.7069 16.7063C8.89444 16.5187 8.99979 16.2644 8.99979 15.9992V13.9992C8.99979 13.734 8.89444 13.4796 8.7069 13.2921C8.51936 13.1045 8.26501 12.9992 7.99979 12.9992C7.73458 12.9992 7.48022 13.1045 7.29269 13.2921C7.10515 13.4796 6.99979 13.734 6.99979 13.9992V15.9992C6.99979 16.2644 7.10515 16.5187 7.29269 16.7063C7.48022 16.8938 7.73458 16.9992 7.99979 16.9992ZM16.9998 4.99917H15.6198L13.8898 1.54917C13.8369 1.42223 13.7585 1.30755 13.6593 1.2123C13.5601 1.11705 13.4423 1.04329 13.3133 0.995615C13.1843 0.94794 13.0469 0.92738 12.9096 0.93522C12.7723 0.943061 12.6381 0.979132 12.5154 1.04118C12.3927 1.10323 12.2841 1.18992 12.1964 1.29584C12.1087 1.40176 12.0438 1.52463 12.0057 1.65677C11.9676 1.78891 11.9572 1.92748 11.9752 2.06382C11.9931 2.20016 12.0389 2.33135 12.1098 2.44917L13.3798 4.99917H6.61979L7.88979 2.44917C7.98686 2.21608 7.99215 1.9549 7.90461 1.71806C7.81708 1.48122 7.64319 1.28627 7.41785 1.17234C7.19252 1.05841 6.93244 1.03393 6.68981 1.10383C6.44718 1.17373 6.23997 1.33282 6.10979 1.54917L4.37979 4.99917H2.99979C2.29298 5.00992 1.61267 5.26992 1.07884 5.7333C0.545015 6.19669 0.191966 6.8337 0.0819632 7.53198C-0.02804 8.23026 0.112069 8.94496 0.477579 9.55002C0.843088 10.1551 1.41052 10.6116 2.07979 10.8392L2.81979 18.2992C2.89441 19.0417 3.24314 19.7298 3.79786 20.2291C4.35259 20.7283 5.07349 21.0029 5.81979 20.9992H14.1998C14.9461 21.0029 15.667 20.7283 16.2217 20.2291C16.7764 19.7298 17.1252 19.0417 17.1998 18.2992L17.9398 10.8392C18.6105 10.611 19.1788 10.1527 19.5441 9.54565C19.9093 8.93857 20.048 8.2218 19.9354 7.52232C19.8228 6.82283 19.4663 6.18576 18.929 5.72395C18.3917 5.26214 17.7083 5.00538 16.9998 4.99917ZM15.1898 18.0992C15.1649 18.3467 15.0487 18.5761 14.8638 18.7425C14.6789 18.9089 14.4386 19.0004 14.1898 18.9992H5.80979C5.56103 19.0004 5.32073 18.9089 5.13582 18.7425C4.95091 18.5761 4.83467 18.3467 4.80979 18.0992L4.09979 10.9992H15.8998L15.1898 18.0992ZM16.9998 8.99917H2.99979C2.73458 8.99917 2.48022 8.89382 2.29269 8.70628C2.10515 8.51874 1.99979 8.26439 1.99979 7.99917C1.99979 7.73396 2.10515 7.4796 2.29269 7.29207C2.48022 7.10453 2.73458 6.99917 2.99979 6.99917H16.9998C17.265 6.99917 17.5194 7.10453 17.7069 7.29207C17.8944 7.4796 17.9998 7.73396 17.9998 7.99917C17.9998 8.26439 17.8944 8.51874 17.7069 8.70628C17.5194 8.89382 17.265 8.99917 16.9998 8.99917Z" fill="#969696"/>
</svg>
