<svg width="26" height="25" viewBox="0 0 26 25" fill="none" xmlns="http://www.w3.org/2000/svg">
<path d="M0.813965 3.50581C0.813965 2.72428 1.08843 2.07952 1.63733 1.57155C2.18624 1.06356 2.89984 0.80957 3.77809 0.80957C4.64067 0.80957 5.33856 1.05964 5.87179 1.55983C6.4207 2.07563 6.69516 2.74772 6.69516 3.57615C6.69516 4.3264 6.42855 4.9516 5.89532 5.45179C5.34641 5.96759 4.62498 6.22549 3.73104 6.22549H3.70751C2.84493 6.22549 2.14704 5.96759 1.61381 5.45179C1.08057 4.93599 0.813965 4.28732 0.813965 3.50581ZM1.11979 24.0207V8.35904H6.34229V24.0207H1.11979ZM9.23583 24.0207H14.4583V15.2755C14.4583 14.7284 14.5211 14.3064 14.6465 14.0094C14.8661 13.478 15.1994 13.0286 15.6463 12.6613C16.0933 12.294 16.654 12.1103 17.3284 12.1103C19.0849 12.1103 19.9631 13.2904 19.9631 15.6506V24.0207H25.1856V15.041C25.1856 12.7277 24.6367 10.9732 23.5389 9.7775C22.4411 8.58177 20.9904 7.98391 19.1868 7.98391C17.1637 7.98391 15.5875 8.8514 14.4583 10.5864V10.6333H14.4348L14.4583 10.5864V8.35904H9.23583C9.26719 8.8592 9.28288 10.4144 9.28288 13.0247C9.28288 15.635 9.26719 19.3003 9.23583 24.0207Z" fill="white"/>
</svg>
