<svg width="171" height="42" viewBox="0 0 171 42" fill="none" xmlns="http://www.w3.org/2000/svg">
<path d="M21.689 21.8401L42.689 21.4202V20.5801L21.689 20.1602V21.8401Z" fill="#FC5842"/>
<path d="M22.1091 10.4999H21.269L20.8491 0H22.5291L22.1091 10.4999Z" fill="white"/>
<path d="M21.269 31.5H22.1091L22.5291 41.9999H20.8491L21.269 31.5Z" fill="white"/>
<path d="M11.1889 20.5801V21.4202L0.688965 21.8401V20.1602L11.1889 20.5801Z" fill="white"/>
<path d="M29.4108 13.8722L28.8169 13.2783L35.9444 5.55664L37.1323 6.74467L29.4108 13.8722Z" fill="white"/>
<path d="M13.9673 28.1279L14.5612 28.7218L7.43363 36.4435L6.24561 35.2555L13.9673 28.1279Z" fill="white"/>
<path d="M28.8169 28.7218L29.4108 28.1279L37.1323 35.2555L35.9444 36.4435L28.8169 28.7218Z" fill="white"/>
<path d="M14.5612 13.2781L13.9673 13.872L6.24561 6.74446L7.43363 5.55664L14.5612 13.2781Z" fill="white"/>
<path d="M18.0587 11.1387L17.2827 11.4602L12.8765 1.92028L14.4285 1.27734L18.0587 11.1387Z" fill="white"/>
<path d="M25.3193 30.8615L26.0954 30.54L30.5016 40.0799L28.9493 40.7229L25.3193 30.8615Z" fill="white"/>
<path d="M11.8277 24.6299L12.1491 25.4059L2.60924 29.8122L1.96631 28.2601L11.8277 24.6299Z" fill="white"/>
<path d="M26.0954 11.4602L25.3193 11.1387L28.9493 1.27734L30.5016 1.92028L26.0954 11.4602Z" fill="white"/>
<path d="M17.2827 30.54L18.0587 30.8615L14.4285 40.7229L12.8765 40.0799L17.2827 30.54Z" fill="white"/>
<path d="M31.229 25.4059L31.5503 24.6299L41.4118 28.2601L40.7689 29.8122L31.229 25.4059Z" fill="white"/>
<path d="M12.1491 16.5937L11.8277 17.3698L1.96631 13.7396L2.60924 12.1875L12.1491 16.5937Z" fill="white"/>
<path d="M20.0522 10.6204L19.2284 10.7842L16.7681 0.567959L18.4159 0.240234L20.0522 10.6204Z" fill="white"/>
<path d="M23.3252 31.3806L24.149 31.2168L26.6095 41.433L24.9617 41.7607L23.3252 31.3806Z" fill="white"/>
<path d="M11.3089 22.6367L11.4727 23.4607L1.25644 25.9211L0.928711 24.2733L11.3089 22.6367Z" fill="white"/>
<path d="M27.8713 12.5026L27.1729 12.036L32.657 3.07227L34.0538 4.00558L27.8713 12.5026Z" fill="white"/>
<path d="M15.506 29.4971L16.2044 29.9639L10.7201 38.9277L9.32324 37.9941L15.506 29.4971Z" fill="white"/>
<path d="M30.186 27.1828L30.6527 26.4844L39.6164 31.9687L38.6831 33.3656L30.186 27.1828Z" fill="white"/>
<path d="M13.1916 14.8175L12.725 15.5159L3.76123 10.0316L4.69476 8.63477L13.1916 14.8175Z" fill="white"/>
<path d="M16.2044 12.036L15.506 12.5026L9.32324 4.00558L10.7201 3.07227L16.2044 12.036Z" fill="white"/>
<path d="M27.1729 29.9639L27.8713 29.4971L34.0538 37.9941L32.657 38.9277L27.1729 29.9639Z" fill="white"/>
<path d="M30.6527 15.5159L30.186 14.8175L38.6831 8.63477L39.6164 10.0318L30.6527 15.5159Z" fill="white"/>
<path d="M12.725 26.4844L13.1916 27.1828L4.69455 33.3656L3.76123 31.9687L12.725 26.4844Z" fill="white"/>
<path d="M24.149 10.7842L23.3252 10.6204L24.9617 0.240234L26.6095 0.567959L24.149 10.7842Z" fill="white"/>
<path d="M19.2284 31.2168L20.0522 31.3806L18.4159 41.7607L16.7681 41.433L19.2284 31.2168Z" fill="white"/>
<path d="M31.9053 23.4607L32.0692 22.6367L42.4494 24.2733L42.1217 25.9211L31.9053 23.4607Z" fill="white"/>
<path d="M11.4727 18.5394L11.3089 19.3634L0.928711 17.7269L1.25644 16.0791L11.4727 18.5394Z" fill="white"/>
<path d="M76.8428 26.0118C79.2083 27.9528 81.493 28.9232 83.6967 28.9232C84.869 28.9232 85.7991 28.6705 86.487 28.165C86.8165 27.9338 87.0833 27.6243 87.2633 27.2643C87.4432 26.9042 87.5308 26.5051 87.518 26.1028C87.5309 25.5758 87.3593 25.0609 87.0328 24.647C86.7092 24.2429 86.0925 23.8082 85.1828 23.343L81.4829 21.5841C79.8452 20.8159 78.6978 19.9869 78.0407 19.0971C77.3723 18.1723 77.026 17.0535 77.0552 15.9128C77.0315 15.0095 77.2162 14.1129 77.5949 13.2924C77.9735 12.472 78.536 11.7497 79.2387 11.1817C79.9251 10.6257 80.713 10.2085 81.5587 9.95346C82.4577 9.67759 83.3933 9.53955 84.3337 9.54405C84.893 9.54533 85.4512 9.59606 86.0016 9.69566C86.5545 9.79343 87.0975 9.94061 87.624 10.1354C88.1297 10.3229 88.617 10.5564 89.08 10.833C89.5162 11.0925 89.9274 11.392 90.3082 11.7276V15.9734C89.4406 15.0887 88.4308 14.3557 87.3208 13.805C86.3474 13.3108 85.2736 13.0462 84.1819 13.0316C83.2115 13.0316 82.4281 13.2591 81.8317 13.714C81.5423 13.9288 81.3096 14.2109 81.1537 14.5359C80.9978 14.8609 80.9235 15.219 80.9371 15.5792C80.9297 16.0632 81.0904 16.5348 81.3919 16.9136C81.6951 17.2979 82.241 17.672 83.0295 18.0357L86.487 19.6431C87.2873 20.0069 88.0579 20.4328 88.7918 20.9169C89.3638 21.2919 89.8751 21.7521 90.3082 22.2815C90.6831 22.7499 90.966 23.2849 91.1422 23.8585C91.32 24.4692 91.4069 25.1028 91.4 25.7388C91.4228 26.6989 91.2192 27.6509 90.8056 28.5177C90.3919 29.3844 89.78 30.1416 89.0192 30.7277C88.2751 31.2973 87.432 31.724 86.5324 31.9863C85.583 32.2706 84.5969 32.4136 83.6059 32.4109C82.3476 32.4134 81.0975 32.2084 79.9059 31.8043C78.8009 31.4466 77.765 30.903 76.8428 30.1969L76.8428 26.0118Z" fill="white"/>
<path d="M93.1751 20.9776C93.1658 19.4461 93.4702 17.9289 94.0697 16.5195C95.2192 13.7779 97.3964 11.5952 100.135 10.4388C101.539 9.83861 103.051 9.53409 104.578 9.54419C105.597 9.54009 106.612 9.67267 107.596 9.9384C108.548 10.1983 109.461 10.586 110.31 11.0909V15.8219C109.631 15.0655 108.791 14.4698 107.853 14.0781C106.845 13.6563 105.762 13.4447 104.669 13.4563C103.66 13.4482 102.659 13.6442 101.727 14.0325C100.844 14.3987 100.044 14.9404 99.3768 15.6249C98.711 16.3158 98.1857 17.1294 97.8302 18.0207C97.4522 18.9603 97.2616 19.9648 97.2691 20.9776C97.2606 21.9856 97.4513 22.9853 97.8302 23.9193C98.1899 24.8075 98.7206 25.6164 99.3922 26.2999C100.065 26.9815 100.863 27.5272 101.742 27.9073C102.666 28.3065 103.663 28.508 104.669 28.4987C105.762 28.5106 106.845 28.2991 107.853 27.8771C108.792 27.4857 109.631 26.8899 110.31 26.1331V30.8643C109.462 31.3696 108.548 31.7573 107.595 32.0167C106.612 32.2824 105.597 32.4151 104.578 32.411C103.05 32.4211 101.536 32.1111 100.135 31.5011C98.7835 30.9172 97.554 30.0839 96.511 29.0447C95.473 28.0038 94.6443 26.7735 94.0697 25.4205C93.4693 24.0168 93.1648 22.5043 93.1751 20.9776Z" fill="white"/>
<path d="M123.772 9.54434C125.304 9.53134 126.822 9.83594 128.23 10.4389C129.574 11.0144 130.794 11.8433 131.824 12.8803C132.854 13.9245 133.668 15.1611 134.22 16.5196C134.8 17.9339 135.094 19.4492 135.084 20.9778C135.094 22.503 134.795 24.0144 134.205 25.4207C133.642 26.7693 132.829 27.999 131.809 29.0448C130.78 30.0877 129.56 30.9218 128.215 31.5012C126.811 32.1016 125.299 32.4112 123.772 32.4112C122.245 32.4112 120.733 32.1016 119.329 31.5012C117.984 30.9221 116.763 30.0879 115.735 29.0448C114.715 27.9993 113.902 26.7695 113.339 25.4207C112.167 22.5695 112.167 19.3708 113.339 16.5196C113.899 15.1649 114.712 13.9297 115.735 12.8803C116.783 11.8142 118.034 10.9695 119.415 10.3964C120.796 9.82333 122.277 9.53357 123.772 9.54434V9.54434ZM123.772 28.6202C124.782 28.6336 125.782 28.4211 126.699 27.9985C127.559 27.5979 128.332 27.031 128.973 26.3305C129.617 25.6223 130.121 24.7992 130.459 23.9043C130.816 22.97 130.995 21.9777 130.99 20.9778C130.995 19.973 130.815 18.9759 130.459 18.036C130.123 17.1354 129.619 16.3069 128.973 15.5947C128.334 14.8959 127.561 14.3336 126.699 13.9419C125.775 13.5417 124.779 13.3353 123.772 13.3353C122.765 13.3353 121.769 13.5417 120.845 13.9419C119.983 14.3336 119.21 14.8958 118.571 15.5947C117.925 16.3067 117.421 17.1353 117.085 18.036C116.729 18.9758 116.549 19.973 116.554 20.9778C116.548 21.9777 116.728 22.97 117.085 23.9043C117.423 24.7994 117.927 25.6225 118.571 26.3305C119.215 27.0337 119.994 27.6008 120.861 27.9985C121.773 28.4181 122.768 28.6304 123.772 28.6202V28.6202Z" fill="white"/>
<path d="M137.962 32.047V9.90813H144.21C145.38 9.89346 146.546 10.0571 147.667 10.3933C148.624 10.6785 149.52 11.1415 150.305 11.7581C151.026 12.3354 151.603 13.0726 151.989 13.9113C152.393 14.8066 152.595 15.7799 152.58 16.762C152.618 18.0939 152.224 19.4024 151.458 20.4924C150.642 21.5732 149.523 22.3863 148.243 22.8275L155.127 32.047H150.366L144.028 23.4947H142.056V32.047H137.962ZM142.056 20.2194H144.21C145.503 20.2194 146.53 19.9161 147.288 19.3096C148.046 18.703 148.425 17.8538 148.425 16.762C148.425 15.6703 148.046 14.816 147.288 14.1993C146.53 13.5829 145.504 13.2746 144.21 13.2745H142.056V20.2194Z" fill="white"/>
<path d="M156.896 9.9082H170.543V13.3048H160.899V19.0367H169.785V22.4636H160.899V28.6503H170.604V32.0471H156.896V9.9082Z" fill="white"/>
<path d="M63.9709 9.5887C65.8827 9.56496 67.7647 10.063 69.4146 11.0293C71.049 11.9968 72.3946 13.3843 73.3117 15.0476L69.8847 17.1098C69.3025 16.0057 68.4395 15.0747 67.3828 14.4106C66.3608 13.7694 65.1773 13.4328 63.9709 13.4402C62.9728 13.4291 61.9844 13.6361 61.0747 14.0468C60.2127 14.4385 59.4389 15.0007 58.8001 15.6996C58.1566 16.4077 57.6524 17.2308 57.314 18.1258C56.9594 19.05 56.7795 20.0321 56.7834 21.0221C56.7806 22.0182 56.9657 23.006 57.3292 23.9334C57.6779 24.8392 58.1921 25.6723 58.8455 26.39C59.4926 27.098 60.27 27.6746 61.1353 28.0883C62.0396 28.5185 63.0302 28.7363 64.0315 28.7251C65.6692 28.7251 67.0542 28.2753 68.1864 27.3756C69.3311 26.4557 70.115 25.1618 70.4003 23.7212H64.2742V20.3245H74.6461C74.7784 21.9251 74.6296 23.5366 74.2063 25.0858C73.8097 26.5086 73.0999 27.8246 72.1289 28.9375C71.1636 30.0862 69.9363 30.9859 68.5503 31.5607C67.0996 32.164 65.542 32.4684 63.9709 32.4555C62.4474 32.4665 60.9387 32.1565 59.5431 31.5455C58.2038 30.9637 56.9889 30.1297 55.9646 29.0891C54.9438 28.0436 54.1308 26.8138 53.5686 25.465C52.9779 24.0588 52.6787 22.5473 52.6892 21.0221C52.669 18.0038 53.8406 15.0994 55.9494 12.9398C56.9758 11.8947 58.1966 11.0602 59.5431 10.4833C60.9413 9.88224 62.449 9.57763 63.9709 9.5887V9.5887Z" fill="white"/>
</svg>
