<svg width="26" height="21" viewBox="0 0 26 21" fill="none" xmlns="http://www.w3.org/2000/svg">
<path d="M17.2791 0.0983323V0.09375H18.4721L18.9081 0.180813C19.1987 0.237335 19.4625 0.311408 19.6996 0.403053C19.9367 0.494698 20.1661 0.601625 20.3879 0.723812C20.6097 0.845998 20.8108 0.970498 20.9913 1.09727C21.1703 1.22252 21.3309 1.35541 21.4731 1.49592C21.6138 1.63797 21.8333 1.67463 22.1316 1.6059C22.4298 1.53716 22.751 1.44169 23.0952 1.31951C23.4393 1.19732 23.7797 1.05985 24.1161 0.907102C24.4526 0.754352 24.6576 0.657369 24.731 0.616128C24.8029 0.573376 24.8412 0.550464 24.8457 0.547394L24.8503 0.540521L24.8733 0.529065L24.8962 0.51761L24.9191 0.506154L24.9421 0.494698L24.9467 0.487825L24.9536 0.483243L24.9605 0.47866L24.965 0.471787L24.988 0.464914L25.0109 0.460331L25.0063 0.494698L24.9994 0.529065L24.988 0.563432L24.9765 0.597799L24.965 0.620711L24.9536 0.643622L24.9421 0.677989C24.9344 0.7009 24.9268 0.731441 24.9191 0.769634C24.9115 0.807827 24.8388 0.960554 24.7012 1.22786C24.5635 1.49517 24.3914 1.76628 24.185 2.04121C23.9785 2.31615 23.7934 2.52386 23.6298 2.6644C23.4646 2.80645 23.3552 2.90573 23.3017 2.96225C23.2481 3.02028 23.1831 3.07373 23.1066 3.12263L22.9919 3.19824L22.969 3.20969L22.946 3.22115L22.9415 3.22802L22.9346 3.2326L22.9277 3.23718L22.9231 3.24406L22.9002 3.25551L22.8772 3.26697L22.8726 3.27384L22.8657 3.27842L22.8589 3.28301L22.8543 3.28988L22.8497 3.29675L22.8428 3.30134L22.8359 3.30592L22.8313 3.31279H22.946L23.5884 3.17532C24.0167 3.08368 24.4259 2.97295 24.8159 2.84311L25.4354 2.63691L25.5042 2.614L25.5386 2.60254L25.5615 2.59108L25.5845 2.57963L25.6074 2.56817L25.6304 2.55672L25.6763 2.54984L25.7221 2.54526V2.59108L25.7107 2.59567L25.6992 2.60254L25.6946 2.60941L25.6877 2.614L25.6808 2.61858L25.6763 2.62545L25.6717 2.63233L25.6648 2.63691L25.6579 2.64149L25.6533 2.64836L25.6488 2.65524L25.6418 2.65982L25.6304 2.68273L25.6189 2.70564L25.612 2.71022C25.609 2.71481 25.5119 2.84462 25.3206 3.09972C25.1295 3.35632 25.0262 3.48614 25.0109 3.48921C24.9956 3.49379 24.9742 3.5167 24.9467 3.55794C24.9207 3.6007 24.7585 3.77102 24.4603 4.06887C24.162 4.36671 23.8699 4.63171 23.5839 4.86389C23.2963 5.09758 23.151 5.38473 23.148 5.72535C23.1434 6.06444 23.1258 6.44784 23.0952 6.8755C23.0646 7.30319 23.0072 7.76522 22.9231 8.26164C22.839 8.75806 22.709 9.31939 22.5331 9.94562C22.3572 10.5719 22.143 11.1828 21.8907 11.7785C21.6383 12.3742 21.3744 12.9088 21.0991 13.3823C20.8238 13.8558 20.5714 14.2568 20.342 14.5852C20.1126 14.9136 19.8793 15.2229 19.6422 15.5131C19.4052 15.8033 19.1054 16.1302 18.7429 16.4937C18.3789 16.8557 18.18 17.0543 18.1464 17.0894C18.1112 17.123 17.9613 17.2482 17.6967 17.4651C17.4336 17.6835 17.1506 17.9019 16.8478 18.1204C16.5465 18.3373 16.2696 18.5183 16.0172 18.6634C15.7649 18.8085 15.4605 18.9742 15.1041 19.1606C14.7493 19.3484 14.3653 19.5226 13.9524 19.6829C13.5394 19.8433 13.1035 19.9922 12.6446 20.1297C12.1858 20.2672 11.7422 20.3741 11.3139 20.4505C10.8857 20.5268 10.4 20.5918 9.85704 20.6452L9.04256 20.7254V20.7369H7.55126V20.7254L7.35625 20.7139C7.22625 20.7063 7.11918 20.6987 7.03504 20.691C6.95093 20.6834 6.63354 20.6414 6.08291 20.565C5.53228 20.4887 5.10019 20.4123 4.78663 20.3359C4.47309 20.2595 4.00656 20.1144 3.3871 19.9006C2.76764 19.6868 2.23766 19.4706 1.79715 19.2522C1.35818 19.0353 1.08286 18.8978 0.9712 18.8398C0.861073 18.7833 0.737181 18.713 0.599523 18.629L0.393035 18.503L0.38847 18.4961L0.381564 18.4915L0.374681 18.487L0.370092 18.4801L0.347149 18.4686L0.324206 18.4572L0.319641 18.4503L0.312735 18.4457L0.305852 18.4411L0.301263 18.4343L0.296698 18.4274L0.289792 18.4228H0.27832V18.377L0.301263 18.3816L0.324206 18.3884L0.42745 18.3999C0.496279 18.4075 0.683655 18.419 0.989554 18.4343C1.29548 18.4496 1.62049 18.4496 1.96463 18.4343C2.30878 18.419 2.66059 18.3846 3.02001 18.3312C3.37946 18.2777 3.80391 18.1861 4.29335 18.0562C4.78282 17.9264 5.2325 17.7721 5.64242 17.5934C6.05081 17.4132 6.34141 17.2788 6.51426 17.1902C6.68555 17.1031 6.9471 16.9412 7.29889 16.7045L7.82658 16.3493L7.83117 16.3425L7.83805 16.3379L7.84496 16.3333L7.84952 16.3264L7.85411 16.3196L7.86099 16.315L7.8679 16.3104L7.87246 16.3035L7.89541 16.2966L7.91835 16.2921L7.92294 16.2691L7.92982 16.2462L7.93673 16.2417L7.94129 16.2348L7.75775 16.2233C7.63539 16.2157 7.51685 16.208 7.40213 16.2004C7.28742 16.1928 7.1077 16.1584 6.86297 16.0973C6.61826 16.0362 6.35442 15.9446 6.07144 15.8224C5.78848 15.7002 5.51316 15.5551 5.24549 15.3871C4.97783 15.2191 4.78433 15.0793 4.66503 14.9678C4.54726 14.8578 4.3943 14.702 4.20617 14.5004C4.01957 14.2973 3.85743 14.0887 3.71978 13.8749C3.58212 13.6611 3.45058 13.4144 3.32518 13.1349L3.13473 12.7179L3.12326 12.6835L3.11179 12.6492L3.1049 12.6262L3.10031 12.6033L3.13473 12.6079L3.16914 12.6148L3.42152 12.6492C3.58978 12.6721 3.85363 12.6797 4.21305 12.6721C4.5725 12.6644 4.82104 12.6492 4.9587 12.6262C5.09636 12.6033 5.18049 12.5881 5.21107 12.5804L5.25696 12.569L5.31432 12.5575L5.37167 12.5461L5.37626 12.5392L5.38315 12.5346L5.39005 12.53L5.39462 12.5231L5.34873 12.5117L5.30285 12.5002L5.25696 12.4888L5.21107 12.4773L5.16519 12.4659C5.1346 12.4582 5.08108 12.443 5.00459 12.42C4.92812 12.3971 4.72163 12.3131 4.38512 12.168C4.04864 12.0229 3.78096 11.8816 3.58212 11.7442C3.38278 11.6063 3.19271 11.4555 3.01313 11.2928C2.83417 11.1278 2.63764 10.9155 2.42349 10.6559C2.20937 10.3962 2.01818 10.0945 1.84992 9.75088C1.68168 9.40721 1.55549 9.07882 1.47136 8.76569C1.38756 8.4544 1.33228 8.13615 1.30619 7.81487L1.26487 7.33373L1.28781 7.33831L1.31076 7.34519L1.3337 7.35664L1.35664 7.3681L1.37959 7.37955L1.40253 7.39101L1.75815 7.55139C1.99524 7.65831 2.28967 7.74996 2.64145 7.82632C2.99326 7.90269 3.20356 7.94471 3.27239 7.95234L3.37563 7.96379H3.58212L3.57755 7.95692L3.57065 7.95234L3.56376 7.94775L3.55917 7.94088L3.55461 7.93401L3.5477 7.92942L3.54082 7.92484L3.53623 7.91797L3.51329 7.90651L3.49035 7.89506L3.48578 7.88818L3.47887 7.8836L3.47199 7.87902L3.4674 7.87215L3.44446 7.86069L3.42152 7.84923L3.41695 7.84236C3.41236 7.83929 3.34658 7.79042 3.21962 7.69573C3.09419 7.5995 2.96266 7.47502 2.825 7.32227C2.68734 7.16952 2.54968 7.00915 2.41202 6.84114C2.27411 6.67274 2.15128 6.49258 2.04493 6.30272C1.93788 6.1118 1.82468 5.86892 1.70538 5.57414C1.58761 5.28087 1.49813 4.98532 1.43694 4.68747C1.37578 4.38962 1.34136 4.0956 1.3337 3.80539C1.32606 3.51517 1.3337 3.26697 1.35664 3.06077C1.37959 2.85457 1.42547 2.62163 1.4943 2.36197C1.56313 2.10232 1.66257 1.82738 1.79256 1.53716L1.98758 1.10185L1.99905 1.06748L2.01052 1.03311L2.01743 1.02853L2.02199 1.02166L2.02658 1.01479L2.03346 1.0102L2.04037 1.01479L2.04493 1.02166L2.04952 1.02853L2.05641 1.03311L2.06331 1.0377L2.06788 1.04457L2.07247 1.05144L2.07935 1.05603L2.09082 1.07894L2.10229 1.10185L2.1092 1.10643L2.11376 1.1133L2.42349 1.45697C2.62998 1.68609 2.87471 1.94194 3.15767 2.2245C3.44065 2.50707 3.59742 2.6537 3.628 2.6644C3.65861 2.67661 3.69683 2.71174 3.74272 2.76979C3.7886 2.82632 3.94157 2.96149 4.20158 3.17532C4.46162 3.38916 4.80193 3.63738 5.22254 3.91994C5.64318 4.20251 6.10968 4.48127 6.62207 4.75621C7.13448 5.03114 7.68511 5.27934 8.27397 5.50082C8.86285 5.72231 9.27582 5.8674 9.51289 5.93614C9.74998 6.00487 10.1553 6.09269 10.7289 6.19962C11.3024 6.30655 11.7346 6.37528 12.0252 6.40582C12.3158 6.43636 12.5146 6.45393 12.6217 6.45852L12.7823 6.4631L12.7777 6.42873L12.7708 6.39437L12.7249 6.10797C12.6943 5.91705 12.679 5.64975 12.679 5.30608C12.679 4.96241 12.7058 4.64547 12.7593 4.35526C12.8129 4.06504 12.8932 3.77102 13.0002 3.47317C13.1073 3.17532 13.2121 2.93627 13.3146 2.75605C13.4186 2.57734 13.5547 2.37343 13.7229 2.14431C13.8912 1.9152 14.1092 1.67846 14.3768 1.43406C14.6445 1.18967 14.9504 0.97201 15.2945 0.78109C15.6387 0.59017 15.9561 0.445049 16.2467 0.345775C16.5373 0.2465 16.782 0.181569 16.9809 0.151028C17.1797 0.120488 17.2791 0.102915 17.2791 0.0983323Z" fill="white"/>
</svg>
