<svg width="26" height="26" viewBox="0 0 26 26" fill="none" xmlns="http://www.w3.org/2000/svg">
<path fill-rule="evenodd" clip-rule="evenodd" d="M26 13C26 20.1799 20.1799 26 13 26C5.8201 26 0 20.1799 0 13C0 5.8201 5.8201 0 13 0C20.1799 0 26 5.8201 26 13ZM19.4735 9.70711C19.864 9.31658 19.864 8.68342 19.4735 8.29289C19.0829 7.90237 18.4498 7.90237 18.0592 8.29289L10.3618 15.9903L7.70711 13.3356C7.31658 12.9451 6.68342 12.9451 6.29289 13.3356C5.90237 13.7261 5.90237 14.3593 6.29289 14.7498L9.65471 18.1116C10.0452 18.5022 10.6784 18.5022 11.0689 18.1116L19.4735 9.70711Z" fill="white"/>
</svg>
